#!OML:ASF C:\ViconDB\ViconDB\414\Spring2016\041811\Spring2016.ASF
:FULLY-SPECIFIED
:DEGREES
309
root 8.75924 18.5 -35.9026 -182.205 0.889109 -180.803
lowerback 0.770292 1.26138 -4.28018
upperback 1.32445 1.73683 -0.872985
thorax 0.83005 0.857406 1.49949
lowerneck -10.3522 -3.81103 -10.3944
upperneck 18.6108 -7.34077 14.372
head 8.35729 -3.33793 5.78317
rclavicle 1.27471e-014 -9.93923e-015
rhumerus -39.7908 -17.1377 -81.6216
rradius 38.3958
rwrist 37.4058
rhand -32.0476 -12.8749
rfingers 7.12502
rthumb -5.29467 -42.7887
lclavicle 1.27471e-014 -9.93923e-015
lhumerus -39.8041 -4.3665 89.8975
lradius 25.6826
lwrist -32.4481
lhand -30.136 19.0399
lfingers 7.12502
lthumb -3.44876 48.9918
rfemur -10.5392 -18.1848 11.3156
rtibia 72.4936
rfoot -158.905 -6.1504
rtoes -11.5072
lfemur -12.4491 -2.78239 -21.0618
ltibia 23.625
lfoot -10.9947 1.61334
ltoes -8.17194
310
root 8.73644 18.5109 -36.0781 -182.284 0.559094 -180.762
lowerback 1.02542 1.07203 -4.22013
upperback 1.33053 1.47182 -0.865811
thorax 0.709605 0.728124 1.46899
lowerneck -10.4677 -3.6978 -10.1686
upperneck 18.7986 -7.16903 14.0726
head 8.39767 -3.25874 5.66121
rclavicle -7.85821e-015 -3.61788e-014
rhumerus -40.5038 -17.7152 -81.2638
rradius 38.062
rwrist 38.6126
rhand -31.6502 -12.614
rfingers 7.12502
rthumb -4.91098 -42.537
lclavicle -7.85821e-015 -3.61788e-014
lhumerus -39.0425 -5.46193 90.2634
lradius 26.0871
lwrist -31.3338
lhand -29.8928 18.8895
lfingers 7.12502
lthumb -3.21391 48.845
rfemur -12.3127 -19.0097 11.6291
rtibia 73.6942
rfoot -160.225 -6.09246
rtoes -10.6868
lfemur -11.5784 -3.24796 -21.189
ltibia 23.3443
lfoot -11.4737 1.63852
ltoes -8.27345
311
root 8.71778 18.5226 -36.2538 -182.267 0.236731 -180.462
lowerback 1.10752 0.926942 -3.93213
upperback 1.37079 1.27165 -0.74401
thorax 0.718888 0.627432 1.43328
lowerneck -10.6315 -3.68653 -10.0429
upperneck 18.9531 -7.10318 13.7688
head 8.45527 -3.2315 5.54197
rclavicle -5.47279e-015 -9.93923e-015
rhumerus -41.1156 -18.1942 -80.886
rradius 37.6899
rwrist 39.1939
rhand -31.6026 -12.3969
rfingers 7.12502
rthumb -4.86504 -42.321
lclavicle -5.47279e-015 -9.93923e-015
lhumerus -38.0734 -6.07336 90.2819
lradius 26.1161
lwrist -32.2788
lhand -29.782 18.7977
lfingers 7.12502
lthumb -3.10692 48.7548
rfemur -14.1382 -19.7268 12.425
rtibia 74.5105
rfoot -161.453 -6.126
rtoes -10.4119
lfemur -10.8789 -3.75246 -21.0046
ltibia 23.22
lfoot -12.0327 1.68648
ltoes -8.31391
312
root 8.70015 18.5303 -36.4307 -182.228 -0.141285 -180.477
lowerback 1.05782 0.757604 -4.03725
upperback 1.44025 0.945975 -0.713217
thorax 0.830575 0.416056 1.52639
lowerneck -10.817 -3.56479 -9.88229
upperneck 19.1418 -6.9514 13.6557
head 8.52253 -3.15167 5.49434
rclavicle 1.83752e-014 1.39149e-014
rhumerus -41.7354 -18.666 -80.5405
rradius 37.3483
rwrist 40.1798
rhand -31.4069 -12.2307
rfingers 7.12502
rthumb -4.67604 -42.1591
lclavicle 1.83752e-014 1.39149e-014
lhumerus -37.0831 -6.77004 90.3089
lradius 26.3553
lwrist -32.0704
lhand -29.5164 18.6525
lfingers 7.12502
lthumb -2.85043 48.6132
rfemur -15.8915 -20.413 12.8487
rtibia 75.0252
rfoot -162.592 -5.9542
rtoes -10.2868
lfemur -10.2589 -4.34521 -21.2047
ltibia 23.2311
lfoot -12.6845 1.82471
ltoes -8.59816
313
root 8.68275 18.5299 -36.6055 -182.298 -0.579997 -180.563
lowerback 1.20186 0.573114 -4.16189
upperback 1.4888 0.690888 -0.691291
thorax 0.812452 0.285971 1.6187
lowerneck -10.809 -3.50162 -9.81832
upperneck 19.2163 -6.86654 13.5589
head 8.52859 -3.1164 5.46077
rclavicle 1.5294e-014 -1.51076e-014
rhumerus -42.3207 -18.877 -80.3166
rradius 36.9228
rwrist 40.0268
rhand -31.8938 -12.4457
rfingers 7.12502
rthumb -5.14615 -42.3632
lclavicle 1.5294e-014 -1.51076e-014
lhumerus -36.0714 -7.27252 90.2951
lradius 26.5743
lwrist -32.0204
lhand -29.3243 18.4179
lfingers 7.12502
lthumb -2.6649 48.381
rfemur -17.4867 -21.0391 13.2107
rtibia 75.2639
rfoot -163.379 -5.81091
rtoes -9.86691
lfemur -9.57716 -4.98364 -21.4962
ltibia 23.3769
lfoot -13.3885 1.9254
ltoes -8.71843
314
root 8.67135 18.5281 -36.7811 -182.355 -0.953772 -180.47
lowerback 1.28974 0.424721 -4.19871
upperback 1.56988 0.48987 -0.584346
thorax 0.857186 0.182541 1.74996
lowerneck -10.9197 -3.46746 -9.82774
upperneck 19.332 -6.82233 13.5453
head 8.58189 -3.09328 5.46464
rclavicle 9.81499e-016 2.14687e-014
rhumerus -43.1261 -19.4581 -79.7266
rradius 36.6086
rwrist 40.9387
rhand -31.9165 -12.1377
rfingers 7.12502
rthumb -5.16808 -42.0546
lclavicle 9.81499e-016 2.14687e-014
lhumerus -35.1357 -7.75536 90.2819
lradius 26.981
lwrist -31.9041
lhand -29.1335 18.0584
lfingers 7.12502
lthumb -2.48061 48.0238
rfemur -18.9833 -21.5298 13.9195
rtibia 75.1784
rfoot -164.304 -5.59454
rtoes -9.7536
lfemur -8.99662 -5.59336 -21.5681
ltibia 23.6482
lfoot -14.165 2.07282
ltoes -8.941
315
root 8.6622 18.5173 -36.9498 -182.356 -1.36583 -180.35
lowerback 1.45934 0.260628 -4.2714
upperback 1.54321 0.263797 -0.43707
thorax 0.747857 0.0721497 1.94267
lowerneck -10.8748 -3.39509 -9.92653
upperneck 19.4596 -6.76758 13.6609
head 8.61541 -3.07318 5.53258
rclavicle 4.48508e-015 1.35174e-014
rhumerus -43.8632 -19.6361 -79.2603
rradius 36.3014
rwrist 41.0156
rhand -32.1394 -12.5036
rfingers 7.12502
rthumb -5.38334 -42.4152
lclavicle 4.48508e-015 1.35174e-014
lhumerus -34.2511 -8.24974 90.3849
lradius 27.386
lwrist -31.2772
lhand -29.0154 17.9168
lfingers 7.12502
lthumb -2.36659 47.8835
rfemur -20.5164 -21.9017 14.7808
rtibia 74.8213
rfoot -165.262 -5.37476
rtoes -9.77486
lfemur -8.58061 -6.30036 -21.6026
ltibia 24.0647
lfoot -14.971 2.2727
ltoes -9.18515
316
root 8.65682 18.5026 -37.1229 -182.376 -1.80679 -180.123
lowerback 1.5842 0.073855 -4.26737
upperback 1.52792 0.0110409 -0.283325
thorax 0.678814 -0.0517119 2.10047
lowerneck -10.7383 -3.30609 -9.85861
upperneck 19.5054 -6.70941 13.7239
head 8.59642 -3.04897 5.55143
rclavicle 2.44754e-015 -1.47101e-014
rhumerus -44.8662 -20.5069 -78.3539
rradius 35.6247
rwrist 43.685
rhand -32.9829 -12.3037
rfingers 7.12502
rthumb -6.19767 -42.193
lclavicle 2.44754e-015 -1.47101e-014
lhumerus -33.3296 -8.39049 90.2235
lradius 27.7373
lwrist -31.2046
lhand -28.8846 17.7694
lfingers 7.12502
lthumb -2.24028 47.7374
rfemur -21.9114 -22.2207 15.7801
rtibia 74.1463
rfoot -165.913 -5.11017
rtoes -9.88791
lfemur -8.25553 -6.8261 -21.4932
ltibia 24.6667
lfoot -15.8275 2.24473
ltoes -9.30637
317
root 8.64344 18.4805 -37.2984 -182.317 -2.15338 -180.139
lowerback 1.63691 -0.0856771 -4.41026
upperback 1.48707 -0.204478 -0.186184
thorax 0.623241 -0.158202 2.2827
lowerneck -10.7185 -3.22462 -9.78146
upperneck 19.6544 -6.64281 13.6936
head 8.62952 -3.02151 5.53829
rclavicle -2.60905e-016 3.97569e-016
rhumerus -45.7783 -21.1888 -77.5165
rradius 35.259
rwrist 44.3978
rhand -32.8938 -11.7545
rfingers 7.12502
rthumb -6.11168 -41.6463
lclavicle -2.60905e-016 3.97569e-016
lhumerus -32.6163 -8.84769 90.2152
lradius 28.3558
lwrist -30.6555
lhand -28.7229 17.3284
lfingers 7.12502
lthumb -2.08406 47.298
rfemur -23.3438 -22.431 16.4315
rtibia 73.2198
rfoot -166.609 -4.66256
rtoes -9.65158
lfemur -8.02936 -7.34084 -21.6883
ltibia 25.3665
lfoot -16.4943 2.3033
ltoes -10.4274
318
root 8.63432 18.4547 -37.473 -182.351 -2.49676 -179.988
lowerback 1.75684 -0.207352 -4.40541
upperback 1.47463 -0.371109 -0.0520286
thorax 0.556305 -0.239437 2.42033
lowerneck -10.5231 -3.17277 -9.79223
upperneck 19.6519 -6.6398 13.8329
head 8.59578 -3.02572 5.59069
rclavicle 2.3792e-015 1.07344e-014
rhumerus -46.5339 -21.3527 -77.2368
rradius 35.3961
rwrist 42.3475
rhand -32.2082 -12.2067
rfingers 7.12502
rthumb -5.44978 -42.1166
lclavicle 2.3792e-015 1.07344e-014
lhumerus -31.7993 -9.1815 90.1964
lradius 28.9342
lwrist -30.053
lhand -28.6106 17.0848
lfingers 7.12502
lthumb -1.97562 47.0554
rfemur -24.5104 -22.454 17.317
rtibia 71.9447
rfoot -167.245 -4.12591
rtoes -10.149
lfemur -7.75332 -7.7055 -21.6699
ltibia 26.1252
lfoot -17.3706 2.21155
ltoes -10.7339
319
root 8.62849 18.4296 -37.6526 -182.286 -2.88964 -179.85
lowerback 1.83345 -0.339071 -4.39668
upperback 1.37917 -0.547826 0.084813
thorax 0.429921 -0.321776 2.55935
lowerneck -10.3379 -3.125 -9.90677
upperneck 19.7289 -6.65507 14.0347
head 8.59824 -3.04313 5.68346
rclavicle 5.72127e-015 1.43125e-014
rhumerus -47.3125 -21.3706 -76.848
rradius 35.2033
rwrist 41.1702
rhand -31.7239 -12.1801
rfingers 7.12502
rthumb -4.98216 -42.1015
lclavicle 5.72127e-015 1.43125e-014
lhumerus -31.1524 -9.60288 90.232
lradius 29.6214
lwrist -29.4164
lhand -28.5454 16.9739
lfingers 7.12502
lthumb -1.9127 46.9451
rfemur -25.6515 -22.4336 18.2101
rtibia 70.3659
rfoot -167.926 -3.53837
rtoes -10.1297
lfemur -7.59014 -8.05481 -21.6374
ltibia 26.9302
lfoot -18.2972 2.0562
ltoes -10.8987
320
root 8.61857 18.397 -37.8335 -182.262 -3.09387 -179.831
lowerback 1.95809 -0.460722 -4.57055
upperback 1.23724 -0.717163 0.217516
thorax 0.231609 -0.399014 2.79802
lowerneck -9.98474 -2.96384 -9.92137
upperneck 19.756 -6.53387 14.1985
head 8.52811 -3.00258 5.76046
rclavicle 4.05024e-015 3.18055e-014
rhumerus -48.376 -21.8299 -75.9627
rradius 34.9293
rwrist 41.7556
rhand -31.3638 -12.0356
rfingers 7.12502
rthumb -4.63443 -41.9649
lclavicle 4.05024e-015 3.18055e-014
lhumerus -30.747 -10.1647 90.3604
lradius 30.6282
lwrist -27.8471
lhand -28.4661 16.9419
lfingers 7.12502
lthumb -1.83608 46.9137
rfemur -26.6257 -22.2444 18.9013
rtibia 68.5241
rfoot -168.328 -2.84205
rtoes -9.85328
lfemur -7.34574 -8.29223 -21.7543
ltibia 27.7221
lfoot -18.586 1.98383
ltoes -13.0579
